#!OML:ASF I:\Actors\actors\Patient Classification 2\Patient 1\Session 1\actor1.ASF
:FULLY-SPECIFIED
:DEGREES
308
root -0.530489 18.7243 5.47656 2.22236 -3.4853 -3.39883
lowerback 5.64867 -0.475884 -3.35861
upperback 1.92993 -0.837422 -1.28375
thorax -1.15039 -0.420978 0.618996
lowerneck -15.2992 0.0701442 3.10534
upperneck 32.2653 -2.07678 3.40112
head 13.4653 -0.0945994 0.465173
rclavicle -3.37934e-015 6.36111e-015
rhumerus -11.1696 46.0154 -79.4165
rradius 91.2192
rwrist 12.1388
rhand -2.26715 -60.3696
rfingers 7.12502
rthumb 23.4171 -448.965
lclavicle -3.37934e-015 6.36111e-015
lhumerus 6.67555 -39.7684 56.2157
lradius 69.2206
lwrist 13.7969
lhand -5.96536 -47.3452
lfingers 7.12502
lthumb 19.8657 -18.3405
rfemur 0 0 0
rtibia 0
rfoot 0 0
rtoes 0
lfemur -5.42733 -5.49157 -11.2785
ltibia 22.7964
lfoot -23.7704 15.8982
ltoes -54.1361
309
root -0.548235 18.7301 5.47905 2.44246 -3.59866 -2.73227
lowerback 5.44084 -0.47672 -4.20846
upperback 1.8371 -0.879736 -1.49857
thorax -1.11794 -0.442307 0.874205
lowerneck -15.0778 0.142674 3.18626
upperneck 32.1158 -1.99948 3.46992
head 13.3538 -0.0484724 0.488389
rclavicle 1.68967e-014 -4.77083e-015
rhumerus -11.6231 45.5426 -80.2897
rradius 93.3142
rwrist 11.8131
rhand -2.1042 -60.3444
rfingers 7.12502
rthumb 23.5734 -448.92
lclavicle 1.68967e-014 -4.77083e-015
lhumerus 6.43773 -39.7772 56.0032
lradius 69.5553
lwrist 13.9438
lhand -6.02556 -47.4312
lfingers 7.12502
lthumb 19.8078 -18.4205
rfemur 0 0 0
rtibia 0
rfoot 0 0
rtoes 0
lfemur -5.70088 -5.522 -11.9737
ltibia 22.707
lfoot -23.598 16.2579
ltoes -54.4607
310
root -0.550514 18.7356 5.47818 2.57981 -3.5385 -2.55725
lowerback 5.34612 -0.573074 -4.30846
upperback 1.78001 -1.01139 -1.61318
thorax -1.11811 -0.507124 0.819445
lowerneck -14.8903 0.263547 3.38976
upperneck 32.1057 -1.831 3.34414
head 13.3054 0.0297844 0.429376
rclavicle -2.5842e-015 4.45278e-014
rhumerus -11.8451 45.1271 -80.983
rradius 95.2503
rwrist 12.0011
rhand -2.25496 -60.2892
rfingers 7.12502
rthumb 23.4288 -448.883
lclavicle -2.5842e-015 4.45278e-014
lhumerus 6.16102 -39.8049 55.7872
lradius 69.8651
lwrist 14.0998
lhand -6.06482 -47.4465
lfingers 7.12502
lthumb 19.77 -18.4319
rfemur 0 0 0
rtibia 0
rfoot 0 0
rtoes 0
lfemur -5.84506 -5.65019 -12.1333
ltibia 22.6057
lfoot -23.6717 16.1983
ltoes -54.0767
311
root -0.548653 18.7405 5.47657 2.66078 -3.43572 -2.62296
lowerback 5.25931 -0.676727 -4.1565
upperback 1.77618 -1.13687 -1.64312
thorax -1.07175 -0.570219 0.710036
lowerneck -14.8629 0.367509 3.58338
upperneck 32.2337 -1.68461 3.17294
head 13.3509 0.0963285 0.35246
rclavicle -1.19271e-014 -1.90833e-014
rhumerus -11.9179 44.7776 -81.4727
rradius 96.8263
rwrist 12.3361
rhand -2.45528 -60.2315
rfingers 7.12502
rthumb 23.2367 -448.85
lclavicle -1.19271e-014 -1.90833e-014
lhumerus 6.1068 -39.901 55.505
lradius 69.9877
lwrist 14.2193
lhand -6.11369 -47.5007
lfingers 7.12502
lthumb 19.7231 -18.4813
rfemur 0 0 0
rtibia 0
rfoot 0 0
rtoes 0
lfemur -5.88823 -5.77961 -12.0243
ltibia 22.5018
lfoot -23.8605 15.9174
ltoes -53.7657
312
root -0.548306 18.7428 5.47774 2.74182 -3.39614 -2.66535
lowerback 5.05466 -0.736877 -4.05851
upperback 1.80374 -1.19998 -1.69171
thorax -0.929771 -0.60416 0.60548
lowerneck -14.995 0.395303 3.64591
upperneck 32.4541 -1.68432 3.17702
head 13.4752 0.110553 0.34575
rclavicle -1.35174e-014 3.18055e-015
rhumerus -11.9902 44.4879 -81.9157
rradius 97.9742
rwrist 12.1146
rhand -2.43789 -60.1437
rfingers 7.12502
rthumb 23.2533 -448.76
lclavicle -1.35174e-014 3.18055e-015
lhumerus 6.26149 -40.0703 55.1612
lradius 69.9384
lwrist 14.2084
lhand -6.13113 -47.6483
lfingers 7.12502
lthumb 19.7063 -18.6272
rfemur 0 0 0
rtibia 0
rfoot 0 0
rtoes 0
lfemur -5.99033 -5.68899 -11.9589
ltibia 22.5072
lfoot -23.7621 15.853
ltoes -53.8304
313
root -0.546968 18.743 5.48132 2.7968 -3.421 -2.74099
lowerback 4.78333 -0.767043 -3.86751
upperback 1.85997 -1.21523 -1.78422
thorax -0.726252 -0.614945 0.399617
lowerneck -15.1503 0.371671 3.67506
upperneck 32.5802 -1.78448 3.29141
head 13.5668 0.09009 0.37176
rclavicle -7.15625e-015 -1.74931e-014
rhumerus -12.1002 44.3777 -82.3696
rradius 98.1813
rwrist 12.3317
rhand -3.96774 -59.3501
rfingers 7.12502
rthumb 21.7849 -448.144
lclavicle -7.15625e-015 -1.74931e-014
lhumerus 6.49334 -40.2569 54.7705
lradius 69.8388
lwrist 14.123
lhand -6.08553 -47.7191
lfingers 7.12502
lthumb 19.7501 -18.7025
rfemur 0 0 0
rtibia 0
rfoot 0 0
rtoes 0
lfemur -6.05325 -5.60301 -11.886
ltibia 22.5233
lfoot -23.6096 15.9883
ltoes -53.8477
314
root -0.545739 18.7444 5.4865 2.8266 -3.48134 -2.8128
lowerback 4.52135 -0.766319 -3.7415
upperback 1.92258 -1.19307 -1.84904
thorax -0.520618 -0.60695 0.256666
lowerneck -15.3247 0.299743 3.70387
upperneck 32.5884 -1.94027 3.37494
head 13.6111 0.0391726 0.375468
rclavicle 2.26615e-014 9.54166e-015
rhumerus -12.2342 44.5719 -82.6692
rradius 97.5122
rwrist 12.6972
rhand -4.0195 -59.6028
rfingers 7.12502
rthumb 21.7352 -448.403
lclavicle 2.26615e-014 9.54166e-015
lhumerus 6.72517 -40.406 54.483
lradius 69.722
lwrist 14.017
lhand -6.0885 -47.7576
lfingers 7.12502
lthumb 19.7473 -18.7407
rfemur 0 0 0
rtibia 0
rfoot 0 0
rtoes 0
lfemur -6.01115 -5.7968 -11.8193
ltibia 22.5168
lfoot -23.9316 15.9738
ltoes -53.8676
315
root -0.54543 18.7452 5.49117 2.84098 -3.55671 -2.77168
lowerback 4.36705 -0.740324 -3.89577
upperback 1.91562 -1.15655 -1.8434
thorax -0.439364 -0.590612 0.344438
lowerneck -15.469 0.194534 3.66121
upperneck 32.5513 -2.09964 3.40393
head 13.6277 -0.0305933 0.368659
rclavicle -3.18055e-014 -1.59028e-014
rhumerus -12.511 45.1474 -82.8248
rradius 95.9803
rwrist 13.3037
rhand -2.62343 -59.8551
rfingers 7.12502
rthumb 23.0753 -448.494
lclavicle -3.18055e-014 -1.59028e-014
lhumerus 6.78965 -40.4742 54.5342
lradius 69.6054
lwrist 13.8347
lhand -6.10389 -47.8424
lfingers 7.12502
lthumb 19.7325 -18.8239
rfemur 0 0 0
rtibia 0
rfoot 0 0
rtoes 0
lfemur -5.9476 -5.93314 -11.8748
ltibia 22.5006
lfoot -24.2443 15.9417
ltoes -53.6523
316
root -0.54702 18.7443 5.49394 2.80711 -3.66815 -2.73555
lowerback 4.37261 -0.711755 -4.23873
upperback 1.85267 -1.13387 -1.72447
thorax -0.498239 -0.579603 0.65757
lowerneck -15.5516 0.109987 3.60185
upperneck 32.4733 -2.17147 3.30022
head 13.6093 -0.0840773 0.325433
rclavicle 2.127e-014 -9.54166e-015
rhumerus -12.8688 46.0735 -82.9635
rradius 94.1282
rwrist 13.1569
rhand -2.67221 -59.8477
rfingers 7.12502
rthumb 23.0285 -448.492
lclavicle 2.127e-014 -9.54166e-015
lhumerus 6.65824 -40.4138 54.8543
lradius 69.5469
lwrist 13.6899
lhand -6.02627 -47.853
lfingers 7.12502
lthumb 19.8071 -18.8423
rfemur 0 0 0
rtibia 0
rfoot 0 0
rtoes 0
lfemur -5.84338 -5.98251 -11.935
ltibia 22.4679
lfoot -24.3597 16.0477
ltoes -53.6278
317
root -0.549322 18.7417 5.49622 2.72621 -3.83979 -2.71699
lowerback 4.45588 -0.652825 -4.66352
upperback 1.7933 -1.07843 -1.54238
thorax -0.595899 -0.551638 1.08089
lowerneck -15.601 0.0135741 3.52804
upperneck 32.3839 -2.23697 3.14838
head 13.5774 -0.14375 0.266602
rclavicle 5.96354e-016 -2.06736e-014
rhumerus -13.2196 47.0492 -83.0965
rradius 92.2999
rwrist 12.7391
rhand -2.67919 -60.1124
rfingers 7.12502
rthumb 23.0218 -448.757
lclavicle 5.96354e-016 -2.06736e-014
lhumerus 6.46994 -40.32 55.2491
lradius 69.5762
lwrist 13.6871
lhand -6.00488 -47.735
lfingers 7.12502
lthumb 19.8277 -18.7263
rfemur 0 0 0
rtibia 0
rfoot 0 0
rtoes 0
lfemur -5.66931 -6.0077 -11.9887
ltibia 22.4173
lfoot -24.4644 16.1866
ltoes -53.5878
